<svg version="1.1" id="Layer_1" xmlns="http://www.w3.org/2000/svg" xmlns:xlink="http://www.w3.org/1999/xlink" x="0px" y="0px"
	 width="100%" viewBox="0 0 711 192" enable-background="new 0 0 711 192" xml:space="preserve">
<path fill="#000000" opacity="1.000000" stroke="none" 
	d="
M522.000000,193.000000 
	C348.047974,193.000000 174.595947,193.000000 1.071961,193.000000 
	C1.071961,129.065735 1.071961,65.131378 1.071961,1.098505 
	C237.999985,1.098505 474.999969,1.098505 711.973389,1.098505 
	C711.973389,65.070839 711.973389,129.035431 711.973389,193.000000 
	C648.797913,193.000000 585.648926,193.000000 522.000000,193.000000 
M679.026978,46.995300 
	C679.026978,46.995300 679.099426,46.938000 679.006165,46.128056 
	C678.468384,40.882771 674.541687,43.659958 671.206848,43.016220 
	C670.140015,43.067329 669.073181,43.118435 667.349609,43.013103 
	C666.905579,43.064960 666.461487,43.116817 665.161987,43.014637 
	C661.108582,43.398628 657.055237,43.782619 652.210449,44.010601 
	C651.139709,44.062492 650.069031,44.114384 648.207581,44.013660 
	C647.138733,44.064419 646.069946,44.115177 644.081055,44.009647 
	C635.585266,45.501690 626.853271,40.556671 619.075867,44.370644 
	C616.250610,43.857132 613.930725,43.207798 611.578064,43.051666 
	C605.190674,42.627781 598.787476,42.207226 592.395264,42.270210 
	C590.929382,42.284653 589.179871,44.035519 588.199036,45.434628 
	C587.876038,45.895370 589.306152,48.493725 590.374939,48.872601 
	C596.823120,51.158459 599.861023,56.768295 599.085388,63.412521 
	C598.414856,69.157547 599.131714,75.050812 598.909546,80.866104 
	C598.721252,85.792999 600.225952,90.926422 597.500610,96.064537 
	C589.444153,87.646248 581.628540,79.524963 573.867371,71.352028 
	C569.491272,66.743866 565.237732,62.019562 560.868408,57.404892 
	C556.958496,53.275360 553.114441,49.065266 548.966064,45.185009 
	C545.086304,41.556026 537.152161,42.198929 533.934875,46.204311 
	C539.231323,50.995266 539.657959,57.721451 539.860779,64.054306 
	C540.319214,78.368240 540.015869,92.706963 539.997192,107.035576 
	C539.990234,112.365669 535.261536,117.589775 530.157104,117.987488 
	C525.830566,118.324615 520.842957,113.992889 519.761536,108.236320 
	C519.841309,100.757271 520.086304,93.275391 519.958069,85.799904 
	C519.805359,76.894371 518.859924,67.975235 519.218445,59.100803 
	C519.373596,55.261715 519.468750,50.136253 525.363647,48.860909 
	C526.991211,48.508789 528.267517,46.533195 529.704956,45.302483 
	C528.020508,44.536274 526.354553,43.160309 524.648376,43.108311 
	C516.824402,42.869892 508.984192,42.845840 501.161072,43.096050 
	C498.818115,43.170986 496.511566,44.383030 493.759827,45.201584 
	C493.086548,44.791969 491.739563,43.312893 490.329773,43.250378 
	C487.277863,43.115051 484.195984,43.926861 481.122467,43.957531 
	C471.344208,44.055088 461.559662,44.138073 451.787201,43.872032 
	C448.215393,43.774803 444.690094,42.408878 441.105835,42.155346 
	C439.174744,42.018749 435.955719,42.435688 435.403870,43.595451 
	C433.318817,47.977684 432.088074,52.766415 430.537598,57.403019 
	C430.878235,57.903942 431.218842,58.404861 431.559479,58.905785 
	C443.745392,49.774204 457.186035,50.262192 471.457977,52.071918 
	C470.453949,53.905384 469.855927,55.197620 469.084320,56.376194 
	C458.326477,72.807816 447.597809,89.259026 436.731323,105.618668 
	C434.067993,109.628334 430.935242,113.326210 427.232635,117.016434 
	C426.168488,116.973808 425.104370,116.931175 423.769684,116.258934 
	C421.883057,114.492111 419.996399,112.725281 418.004517,110.220932 
	C417.945465,109.481438 417.886414,108.741951 417.983429,107.076385 
	C417.932098,93.058479 417.880768,79.040581 418.089569,64.390015 
	C418.003052,63.260838 417.916534,62.131664 417.985107,60.128799 
	C418.026276,57.765858 418.067444,55.402916 418.581940,52.925076 
	C418.888000,52.738232 419.040680,52.465515 419.701782,51.832104 
	C421.306122,50.869064 423.056122,50.078472 424.467163,48.886570 
	C425.531494,47.987499 426.161926,46.574799 426.985504,45.390705 
	C425.788727,44.595516 424.613068,43.155056 423.391541,43.115017 
	C417.599945,42.925175 411.795807,43.117405 405.248840,43.019123 
	C404.491211,43.071850 403.733612,43.124577 402.095947,43.020920 
	C375.211975,43.020920 348.328003,43.020920 321.402771,43.020920 
	C320.444977,45.759033 317.664246,49.647957 318.499359,52.464935 
	C319.332001,55.273518 314.204559,59.642212 320.788086,61.040520 
	C324.373657,54.826694 330.458771,52.467636 337.351196,51.199921 
	C343.181213,50.127613 347.003693,52.806202 347.004669,58.557198 
	C347.006012,66.388451 347.004730,74.219704 347.011688,82.050957 
	C347.018494,89.714066 346.621460,97.407166 347.175110,105.030922 
	C347.628143,111.268784 345.837158,114.543045 339.689911,116.049774 
	C337.651917,116.549301 335.739410,117.560928 333.769501,118.338417 
	C333.862518,118.844826 333.955536,119.351234 334.048553,119.857643 
	C347.513275,124.092194 361.244659,120.186073 374.657501,121.070190 
	C376.184326,115.396156 371.501862,116.756142 369.684448,116.195221 
	C363.159332,114.181335 360.919617,111.089920 362.299713,104.313004 
	C362.425079,103.697601 362.881683,103.108147 362.870453,102.512550 
	C362.605865,88.450340 362.055908,74.388237 362.097839,60.327721 
	C362.119629,53.026222 364.857697,50.721951 371.209625,51.377922 
	C373.665558,51.631546 376.217285,52.096943 378.444336,53.093716 
	C380.491180,54.009815 382.205200,55.715286 383.978394,57.178913 
	C384.969208,57.996727 385.782135,59.030067 386.675201,59.966305 
	C387.459991,58.903507 388.505615,57.945072 388.980469,56.758274 
	C390.388824,53.238419 391.572205,49.628563 392.929718,45.811672 
	C396.491608,48.581249 399.333649,50.791115 402.059875,53.531296 
	C402.355042,53.715664 402.650238,53.900032 402.973328,54.001202 
	C402.973328,54.001202 402.906250,54.057835 403.007446,54.544712 
	C403.007446,54.544712 403.174530,55.013077 403.034271,55.495667 
	C403.080658,55.656624 403.127075,55.817581 403.016632,56.746174 
	C403.069000,59.168049 403.121368,61.589920 403.022736,64.936806 
	C403.073425,76.616402 403.124146,88.295998 403.023010,100.486572 
	C403.070190,100.657875 403.117371,100.829185 403.010742,101.878410 
	C403.065002,104.251839 403.119293,106.625275 403.022736,109.759094 
	C402.632080,113.336960 400.895721,115.554848 397.209656,116.475090 
	C395.777039,116.832748 394.652527,118.424599 393.387634,119.454247 
	C393.645569,119.974724 393.903473,120.495193 394.161377,121.015671 
	C400.611450,121.341492 407.060638,121.688484 413.513245,121.951607 
	C414.011902,121.971931 414.534546,121.402649 415.697235,121.004173 
	C416.130585,120.946365 416.563904,120.888550 417.861755,120.986717 
	C419.906677,120.936119 421.951599,120.885513 424.846313,120.989342 
	C428.224121,121.271355 431.601898,121.553360 435.778748,121.746788 
	C440.157104,121.489594 444.539825,120.958733 448.912933,121.028900 
	C459.977936,121.206467 471.039703,121.622406 482.100220,122.014870 
	C485.007690,122.118034 487.661377,122.148262 488.790649,118.658989 
	C489.526825,116.384277 490.828125,114.271812 491.386658,111.967972 
	C491.723633,110.577995 491.122772,108.960632 490.943359,107.445442 
	C489.322266,107.771027 487.583099,107.830513 486.108002,108.485107 
	C483.942841,109.445908 482.056580,111.657509 479.894012,111.893585 
	C470.796234,112.886757 461.644073,113.425804 452.499573,113.889458 
	C451.405945,113.944908 450.237366,112.523201 449.500427,112.044167 
	C456.157867,102.073601 462.562897,92.428459 469.022858,82.820267 
	C476.311432,71.979630 483.611420,61.146103 491.013733,50.383274 
	C491.942444,49.032932 493.750946,47.025146 494.759918,47.232147 
	C497.646698,47.824364 500.594910,49.034233 502.979736,50.750526 
	C504.093262,51.551910 504.032166,54.068157 504.375793,55.832020 
	C504.681854,57.403282 505.004791,59.010628 504.989868,60.598942 
	C504.847473,75.757240 504.379181,90.918419 504.589355,106.070648 
	C504.657135,110.957916 503.707123,114.183945 499.007751,116.116386 
	C497.741974,116.636887 497.001343,118.434456 496.019653,119.645813 
	C497.548889,120.098885 499.057983,120.650108 500.614746,120.968834 
	C501.574371,121.165314 502.606689,121.015434 503.606262,121.006882 
	C510.070648,120.951546 516.535034,120.892303 523.906555,120.987625 
	C536.265015,120.346214 548.888123,124.076988 561.556152,119.630394 
	C560.783936,118.466995 560.652344,118.011040 560.411804,117.943665 
	C551.568054,115.466133 548.487610,110.353012 549.678040,100.731895 
	C550.838928,91.349670 549.299988,81.637955 549.040466,72.068352 
	C549.014709,71.118301 549.644531,70.150490 550.229858,68.425110 
	C553.782898,71.738457 556.935181,74.348045 559.690430,77.325035 
	C563.794250,81.759140 567.421936,86.640663 571.603455,90.994461 
	C579.043701,98.741241 586.737000,106.245422 594.345520,113.829887 
	C597.074707,116.550461 599.723511,119.384727 602.707825,121.797623 
	C603.689453,122.591316 606.181824,122.892792 606.967896,122.224640 
	C608.104980,121.258186 608.881287,119.187775 608.835022,117.617088 
	C608.489868,105.901573 607.829834,94.195747 607.419983,82.481583 
	C607.158447,75.006523 607.391235,67.508224 606.942566,60.047997 
	C606.698120,55.982216 609.460938,51.054394 612.955444,48.904881 
	C618.144653,45.712898 622.368042,48.842220 626.972229,50.017590 
	C626.972229,50.017590 626.914307,50.047318 627.069092,50.556568 
	C627.363831,50.735352 627.658569,50.914131 627.990295,51.018509 
	C627.990295,51.018509 627.914490,51.052563 627.999207,51.885780 
	C628.631592,55.271862 629.263916,58.657944 629.995483,62.899593 
	C629.670837,65.606964 629.033020,68.319267 629.075684,71.020851 
	C629.264160,82.979881 629.648254,94.935822 629.452698,107.064362 
	C629.362427,107.370499 629.272217,107.676636 629.021301,108.652229 
	C629.075134,109.104797 629.128967,109.557365 628.877319,110.671913 
	C626.973022,112.239494 625.119812,113.875107 623.149841,115.355247 
	C621.226196,116.800598 617.369385,118.352417 617.521851,119.395309 
	C618.046936,122.986351 621.450195,121.175430 623.719116,121.221161 
	C639.153381,121.532280 654.588867,121.805122 670.025269,121.977310 
	C679.099121,122.078529 686.054504,114.198547 684.930847,105.134041 
	C684.796326,104.048454 683.965881,102.682373 683.056274,102.193230 
	C682.484680,101.885857 680.823303,102.709877 680.233215,103.475281 
	C675.996399,108.970940 670.368408,112.369057 663.722412,113.596596 
	C657.029297,114.832832 649.935791,117.038071 644.005554,110.307259 
	C643.944763,109.872513 643.884033,109.437767 643.978943,108.137512 
	C643.926453,106.090454 643.873901,104.043396 643.976990,101.203766 
	C643.924988,100.131958 643.872986,99.060150 643.977905,97.078819 
	C643.981384,94.754967 644.184082,92.410271 643.943542,90.111954 
	C643.542114,86.276817 644.908325,84.024582 648.876709,85.067154 
	C654.628540,86.578255 660.239868,88.624107 667.053711,90.808090 
	C668.609680,87.210785 670.857361,82.170738 672.940125,77.063469 
	C673.344788,76.071213 673.107666,74.817200 673.166626,73.683914 
	C672.014282,73.799294 670.568542,73.508057 669.756104,74.094398 
	C663.288330,78.762482 655.589722,77.859428 648.359680,78.915039 
	C645.303467,79.361267 643.748108,77.696609 643.919495,74.233490 
	C644.189941,68.769279 643.813599,63.273121 644.081909,57.808685 
	C644.176819,55.876007 645.357971,53.996662 646.756958,51.998470 
	C647.836792,51.607044 648.916687,51.215618 650.903137,50.974018 
	C654.269409,50.925793 657.635620,50.877563 661.650269,50.985889 
	C662.436584,51.269123 663.222961,51.552361 664.732727,51.995041 
	C666.765320,53.489632 668.916443,54.851658 670.788513,56.525772 
	C672.023682,57.630276 672.857483,59.183586 673.870972,60.535919 
	C674.954773,58.676025 676.038574,56.816132 677.028320,54.539776 
	C677.028320,54.539776 677.042542,54.113056 677.714294,53.806427 
	C678.085449,52.202274 678.456604,50.598122 678.986267,48.567348 
	C678.986267,48.567348 679.044556,48.115959 679.580933,47.940281 
	C679.407166,47.596516 679.233459,47.252747 679.026978,46.995300 
M38.658588,122.977791 
	C39.099449,122.926918 39.540310,122.876045 40.651558,122.979240 
	C41.103836,122.925758 41.556118,122.872276 42.659306,122.971718 
	C43.099400,122.921944 43.539490,122.872169 44.484818,122.972710 
	C44.653629,122.923981 44.822445,122.875244 45.792023,122.978271 
	C46.524334,122.268333 47.256645,121.558395 47.988956,120.848450 
	C46.991470,119.953514 45.993988,119.058578 44.525982,118.004654 
	C44.525982,118.004654 44.042980,117.889000 43.903812,117.382912 
	C43.600559,117.311577 43.297310,117.240250 42.287624,116.837677 
	C41.524258,114.934273 40.076691,113.019188 40.108982,111.129379 
	C40.312752,99.202751 40.844814,87.281731 41.268463,75.358864 
	C42.969959,76.475578 43.417675,77.631500 43.986061,78.724678 
	C50.780048,91.791481 57.524174,104.885002 64.436478,117.889076 
	C66.808441,122.351433 73.229958,123.570465 74.886322,120.000824 
	C78.114807,113.043098 80.803352,105.833321 84.075043,98.897537 
	C87.976204,90.627327 92.254745,82.535126 96.391350,74.323006 
	C97.279602,84.286674 98.014839,93.954262 99.039154,103.591133 
	C99.917465,111.854385 97.720085,116.320793 91.141472,118.623192 
	C91.141472,119.923645 91.141472,121.224106 91.141472,122.988594 
	C100.890076,122.988594 110.515404,123.048164 120.137367,122.895531 
	C121.089531,122.880432 122.676262,121.651749 122.780533,120.834732 
	C122.887733,119.994713 121.631729,118.248070 120.811867,118.142372 
	C115.833870,117.500633 113.526886,113.822739 113.181999,109.870987 
	C112.065765,97.080734 111.633369,84.229362 111.010925,71.397972 
	C110.603111,62.991085 110.428741,54.571091 109.880363,46.174564 
	C109.788315,44.765285 108.326408,42.331921 107.491722,42.329479 
	C106.009613,42.325150 103.816650,43.454346 103.148491,44.744835 
	C96.944443,56.727322 91.012733,68.850624 84.980972,80.922554 
	C81.296913,88.295830 77.576035,95.650696 73.572685,103.608154 
	C72.328941,101.703888 71.441536,100.551659 70.769951,99.284996 
	C64.062653,86.634605 57.441429,73.938339 50.686558,61.313526 
	C47.584946,55.516632 44.377731,49.763897 40.895241,44.193161 
	C40.165775,43.026279 38.016762,42.746819 36.521896,42.058422 
	C36.017677,43.364975 35.156754,44.648029 35.068878,45.982010 
	C34.603848,53.041393 34.449207,60.121563 33.963932,67.179192 
	C33.437721,74.832199 32.698200,82.471336 31.979532,90.109741 
	C31.798727,92.031456 30.934052,93.960251 31.085300,95.829010 
	C31.641584,102.702110 31.736418,109.471985 28.148020,116.015305 
	C26.566301,116.678223 24.894146,117.189156 23.434746,118.057625 
	C22.465977,118.634140 21.801575,119.722122 21.000931,120.581154 
	C22.002563,121.331551 23.004194,122.081947 24.668024,122.982613 
	C25.114426,122.929390 25.560829,122.876167 26.631388,123.098595 
	C27.747986,123.006523 28.864584,122.914452 30.649530,122.980583 
	C31.101774,122.930206 31.554020,122.879829 32.741520,122.981979 
	C33.487270,122.927231 34.233025,122.872482 35.726261,122.982819 
	C36.486134,122.930138 37.246010,122.877449 38.658588,122.977791 
M214.020233,160.991379 
	C368.826263,160.988068 523.632324,160.984756 678.438354,160.981491 
	C679.771484,160.981461 681.289490,161.384308 682.389465,160.878128 
	C683.676025,160.286041 685.421143,158.992828 685.547607,157.847122 
	C686.520447,149.029007 686.413574,149.017227 677.300903,149.018250 
	C676.800964,149.018295 676.301086,149.017731 675.801147,149.017731 
	C459.339203,149.016037 242.877243,149.014343 26.415302,149.012665 
	C24.646009,149.012665 22.876717,149.012665 21.413784,149.012665 
	C21.413784,153.462311 21.413784,157.380920 21.413784,161.038864 
	C32.183731,161.038864 42.542786,161.038864 53.324184,161.817062 
	C59.100872,161.878052 64.879402,162.049347 70.653450,161.952682 
	C73.470650,161.905518 76.279480,161.358780 79.499931,160.992950 
	C79.499931,160.992950 79.907745,161.038330 80.326035,161.818176 
	C90.914787,161.877731 101.503548,161.954788 112.092300,161.955338 
	C112.759445,161.955368 113.426620,161.358444 114.993095,160.990311 
	C118.297630,161.006577 121.602173,161.022827 125.326088,161.818314 
	C153.911850,161.877869 182.497620,161.943985 211.083405,161.956757 
	C211.754150,161.957062 212.425140,161.358185 214.020233,160.991379 
M264.548584,120.998688 
	C267.325928,120.998688 270.103271,120.998688 272.904968,120.998688 
	C272.676605,117.298546 272.264221,116.847443 268.805542,116.020798 
	C262.360474,114.480362 261.012329,112.811844 261.003906,106.359879 
	C260.998474,102.197998 260.989807,98.036102 260.992645,93.874229 
	C260.997589,86.672653 262.713989,85.407173 269.431580,88.051003 
	C271.745117,88.961548 274.347595,90.067856 275.875000,91.879753 
	C281.513062,98.567879 287.033661,105.393051 292.074951,112.536140 
	C297.799316,120.647102 305.284546,124.206749 315.012756,122.884789 
	C316.427704,122.692513 317.665619,121.197289 318.985443,120.304985 
	C318.047974,119.218140 317.233948,117.983025 316.145996,117.076881 
	C314.187225,115.445503 311.687958,114.332413 310.073608,112.440407 
	C302.099030,103.094193 294.340485,93.563637 286.374878,83.939995 
	C287.558136,83.124046 288.958374,82.008324 290.492859,81.126038 
	C297.571960,77.055748 301.901489,69.863647 300.980286,63.557869 
	C298.992798,49.953102 283.136414,39.307861 269.680328,41.956638 
	C259.485840,43.963390 249.118179,45.948254 238.361969,41.624012 
	C237.788177,43.775433 237.284958,45.662189 236.781754,47.548950 
	C237.298111,47.304165 237.814453,47.059380 238.330795,46.814594 
	C240.518677,49.114788 243.440109,51.078773 244.691162,53.808346 
	C245.979965,56.620285 245.938370,60.175781 245.963776,63.409977 
	C246.077515,77.892448 245.890915,92.377785 246.067825,106.858971 
	C246.128845,111.855270 243.597336,114.635994 239.617111,116.845802 
	C238.398590,117.522316 237.517639,118.806854 236.482101,119.812950 
	C236.772720,120.208237 237.063324,120.603516 237.353928,120.998802 
	C246.101639,120.998802 254.849365,120.998802 264.548584,120.998688 
M182.500000,123.000771 
	C196.598526,123.000771 210.697037,123.000771 225.811218,123.000771 
	C209.902054,95.434998 194.441498,68.646500 178.943268,41.792736 
	C163.425873,68.860313 148.109940,95.576485 132.388092,123.000687 
	C149.325836,123.000687 165.412918,123.000687 182.500000,123.000771 
z"/>
<path fill="#FAFEFE" opacity="1.000000" stroke="none" 
	d="
M52.901844,161.038864 
	C42.542786,161.038864 32.183731,161.038864 21.413784,161.038864 
	C21.413784,157.380920 21.413784,153.462311 21.413784,149.012665 
	C22.876717,149.012665 24.646009,149.012665 26.415302,149.012665 
	C242.877243,149.014343 459.339203,149.016037 675.801147,149.017731 
	C676.301086,149.017731 676.800964,149.018295 677.300903,149.018250 
	C686.413574,149.017227 686.520447,149.029007 685.547607,157.847122 
	C685.421143,158.992828 683.676025,160.286041 682.389465,160.878128 
	C681.289490,161.384308 679.771484,160.981461 678.438354,160.981491 
	C523.632324,160.984756 368.826263,160.988068 213.083618,161.004181 
	C183.066910,161.024353 153.986816,161.031723 124.906708,161.039093 
	C121.602173,161.022827 118.297630,161.006577 114.069122,161.003784 
	C102.066017,161.024277 90.986885,161.031296 79.907745,161.038330 
	C79.907745,161.038330 79.499931,160.992950 78.821793,161.004913 
	C69.729721,161.024216 61.315784,161.031540 52.901844,161.038864 
z"/>
<path fill="#F9FDFD" opacity="1.000000" stroke="none" 
	d="
M522.999451,120.834335 
	C516.535034,120.892303 510.070648,120.951546 503.606262,121.006882 
	C502.606689,121.015434 501.574371,121.165314 500.614746,120.968834 
	C499.057983,120.650108 497.548889,120.098885 496.019653,119.645813 
	C497.001343,118.434456 497.741974,116.636887 499.007751,116.116386 
	C503.707123,114.183945 504.657135,110.957916 504.589355,106.070648 
	C504.379181,90.918419 504.847473,75.757240 504.989868,60.598942 
	C505.004791,59.010628 504.681854,57.403282 504.375793,55.832020 
	C504.032166,54.068157 504.093262,51.551910 502.979736,50.750526 
	C500.594910,49.034233 497.646698,47.824364 494.759918,47.232147 
	C493.750946,47.025146 491.942444,49.032932 491.013733,50.383274 
	C483.611420,61.146103 476.311432,71.979630 469.022858,82.820267 
	C462.562897,92.428459 456.157867,102.073601 449.500427,112.044167 
	C450.237366,112.523201 451.405945,113.944908 452.499573,113.889458 
	C461.644073,113.425804 470.796234,112.886757 479.894012,111.893585 
	C482.056580,111.657509 483.942841,109.445908 486.108002,108.485107 
	C487.583099,107.830513 489.322266,107.771027 490.943359,107.445442 
	C491.122772,108.960632 491.723633,110.577995 491.386658,111.967972 
	C490.828125,114.271812 489.526825,116.384277 488.790649,118.658989 
	C487.661377,122.148262 485.007690,122.118034 482.100220,122.014870 
	C471.039703,121.622406 459.977936,121.206467 448.912933,121.028900 
	C444.539825,120.958733 440.157104,121.489594 435.121582,121.554489 
	C432.315704,119.963936 430.166992,118.565689 428.018311,117.167435 
	C430.935242,113.326210 434.067993,109.628334 436.731323,105.618668 
	C447.597809,89.259026 458.326477,72.807816 469.084320,56.376194 
	C469.855927,55.197620 470.453949,53.905384 471.457977,52.071918 
	C457.186035,50.262192 443.745392,49.774204 431.559479,58.905785 
	C431.218842,58.404861 430.878235,57.903942 430.537598,57.403019 
	C432.088074,52.766415 433.318817,47.977684 435.403870,43.595451 
	C435.955719,42.435688 439.174744,42.018749 441.105835,42.155346 
	C444.690094,42.408878 448.215393,43.774803 451.787201,43.872032 
	C461.559662,44.138073 471.344208,44.055088 481.122467,43.957531 
	C484.195984,43.926861 487.277863,43.115051 490.329773,43.250378 
	C491.739563,43.312893 493.086548,44.791969 493.759827,45.201584 
	C496.511566,44.383030 498.818115,43.170986 501.161072,43.096050 
	C508.984192,42.845840 516.824402,42.869892 524.648376,43.108311 
	C526.354553,43.160309 528.020508,44.536274 529.704956,45.302490 
	C528.267517,46.533195 526.991211,48.508789 525.363647,48.860909 
	C519.468750,50.136253 519.373596,55.261715 519.218445,59.100803 
	C518.859924,67.975235 519.805359,76.894371 519.958069,85.799904 
	C520.086304,93.275391 519.841309,100.757271 519.503967,108.812546 
	C516.878418,112.603462 518.866577,114.684868 520.999512,116.936310 
	C521.963562,117.953911 522.350586,119.518120 522.999451,120.834335 
z"/>
<path fill="#FAFDFD" opacity="1.000000" stroke="none" 
	d="
M42.008396,122.818802 
	C41.556118,122.872276 41.103836,122.925758 40.161827,122.706932 
	C39.116692,122.564674 38.561287,122.694717 38.005882,122.824768 
	C37.246010,122.877449 36.486134,122.930138 35.155441,122.685577 
	C33.725170,122.535378 32.865715,122.682411 32.006264,122.829453 
	C31.554020,122.879829 31.101774,122.930206 30.088814,122.676292 
	C28.354475,122.522316 27.180853,122.672630 26.007231,122.822945 
	C25.560829,122.876167 25.114426,122.929390 24.343630,122.535240 
	C25.213072,121.032700 26.532970,120.084946 27.555983,118.884232 
	C28.226599,118.097122 28.467848,116.944191 28.901398,115.955101 
	C31.736418,109.471985 31.641584,102.702110 31.085300,95.829010 
	C30.934052,93.960251 31.798727,92.031456 31.979532,90.109741 
	C32.698200,82.471336 33.437721,74.832199 33.963932,67.179192 
	C34.449207,60.121563 34.603848,53.041393 35.068878,45.982010 
	C35.156754,44.648029 36.017677,43.364975 36.521896,42.058422 
	C38.016762,42.746819 40.165775,43.026279 40.895241,44.193161 
	C44.377731,49.763897 47.584946,55.516632 50.686558,61.313526 
	C57.441429,73.938339 64.062653,86.634605 70.769951,99.284996 
	C71.441536,100.551659 72.328941,101.703888 73.572685,103.608154 
	C77.576035,95.650696 81.296913,88.295830 84.980972,80.922554 
	C91.012733,68.850624 96.944443,56.727322 103.148491,44.744835 
	C103.816650,43.454346 106.009613,42.325150 107.491722,42.329479 
	C108.326408,42.331921 109.788315,44.765285 109.880363,46.174564 
	C110.428741,54.571091 110.603111,62.991085 111.010925,71.397972 
	C111.633369,84.229362 112.065765,97.080734 113.181999,109.870987 
	C113.526886,113.822739 115.833870,117.500633 120.811867,118.142372 
	C121.631729,118.248070 122.887733,119.994713 122.780533,120.834732 
	C122.676262,121.651749 121.089531,122.880432 120.137367,122.895531 
	C110.515404,123.048164 100.890076,122.988594 91.141472,122.988594 
	C91.141472,121.224106 91.141472,119.923645 91.142319,118.622696 
	C97.720085,116.320793 99.917465,111.854385 99.039154,103.591133 
	C98.014839,93.954262 97.279602,84.286674 96.391350,74.323006 
	C92.254745,82.535126 87.976204,90.627327 84.075043,98.897537 
	C80.803352,105.833321 78.114807,113.043098 74.886322,120.000824 
	C73.229958,123.570465 66.808441,122.351433 64.436478,117.889076 
	C57.524174,104.885002 50.780048,91.791481 43.986061,78.724678 
	C43.417675,77.631500 42.969959,76.475578 41.268463,75.358864 
	C40.844814,87.281731 40.312752,99.202751 40.108982,111.129379 
	C40.076691,113.019188 41.524258,114.934273 42.657780,117.228119 
	C43.366283,117.708702 43.704632,117.798851 44.042980,117.889000 
	C44.042980,117.889000 44.525982,118.004654 44.761688,118.472717 
	C44.995346,120.236023 44.993301,121.531273 44.991257,122.826515 
	C44.822445,122.875244 44.653629,122.923981 44.078423,122.702553 
	C43.117489,122.561195 42.562943,122.690002 42.008396,122.818802 
z"/>
<path fill="#F9FDFD" opacity="1.000000" stroke="none" 
	d="
M523.453003,120.910980 
	C522.350586,119.518120 521.963562,117.953911 520.999512,116.936310 
	C518.866577,114.684868 516.878418,112.603462 519.539185,109.204437 
	C520.842957,113.992889 525.830566,118.324615 530.157104,117.987488 
	C535.261536,117.589775 539.990234,112.365669 539.997192,107.035576 
	C540.015869,92.706963 540.319214,78.368240 539.860779,64.054306 
	C539.657959,57.721451 539.231323,50.995266 533.934875,46.204311 
	C537.152161,42.198929 545.086304,41.556026 548.966064,45.185009 
	C553.114441,49.065266 556.958496,53.275360 560.868408,57.404892 
	C565.237732,62.019562 569.491272,66.743866 573.867371,71.352028 
	C581.628540,79.524963 589.444153,87.646248 597.500610,96.064537 
	C600.225952,90.926422 598.721252,85.792999 598.909546,80.866104 
	C599.131714,75.050812 598.414856,69.157547 599.085388,63.412521 
	C599.861023,56.768295 596.823120,51.158459 590.374939,48.872601 
	C589.306152,48.493725 587.876038,45.895370 588.199036,45.434628 
	C589.179871,44.035519 590.929382,42.284653 592.395264,42.270210 
	C598.787476,42.207226 605.190674,42.627781 611.578064,43.051666 
	C613.930725,43.207798 616.250610,43.857132 619.075867,44.370644 
	C626.853271,40.556671 635.585266,45.501690 644.436157,44.464806 
	C641.449280,45.211044 638.108459,45.716759 634.765137,45.733521 
	C631.343384,45.750675 627.919189,45.288723 623.774231,44.983292 
	C625.283447,47.409348 626.112549,48.742149 626.941650,50.074951 
	C622.368042,48.842220 618.144653,45.712898 612.955444,48.904881 
	C609.460938,51.054394 606.698120,55.982216 606.942566,60.047997 
	C607.391235,67.508224 607.158447,75.006523 607.419983,82.481583 
	C607.829834,94.195747 608.489868,105.901573 608.835022,117.617088 
	C608.881287,119.187775 608.104980,121.258186 606.967896,122.224640 
	C606.181824,122.892792 603.689453,122.591316 602.707825,121.797623 
	C599.723511,119.384727 597.074707,116.550461 594.345520,113.829887 
	C586.737000,106.245422 579.043701,98.741241 571.603455,90.994461 
	C567.421936,86.640663 563.794250,81.759140 559.690430,77.325035 
	C556.935181,74.348045 553.782898,71.738457 550.229858,68.425110 
	C549.644531,70.150490 549.014709,71.118301 549.040466,72.068352 
	C549.299988,81.637955 550.838928,91.349670 549.678040,100.731895 
	C548.487610,110.353012 551.568054,115.466133 560.411804,117.943665 
	C560.652344,118.011040 560.783936,118.466995 561.556152,119.630394 
	C548.888123,124.076988 536.265015,120.346214 523.453003,120.910980 
z"/>
<path fill="#F9FEFD" opacity="1.000000" stroke="none" 
	d="
M264.072815,120.998749 
	C254.849365,120.998802 246.101639,120.998802 237.353928,120.998802 
	C237.063324,120.603516 236.772720,120.208237 236.482101,119.812950 
	C237.517639,118.806854 238.398590,117.522316 239.617111,116.845802 
	C243.597336,114.635994 246.128845,111.855270 246.067825,106.858971 
	C245.890915,92.377785 246.077515,77.892448 245.963776,63.409977 
	C245.938370,60.175781 245.979965,56.620285 244.691162,53.808346 
	C243.440109,51.078773 240.518677,49.114788 238.330795,46.814594 
	C237.814453,47.059380 237.298111,47.304165 236.781754,47.548950 
	C237.284958,45.662189 237.788177,43.775433 238.361969,41.624012 
	C249.118179,45.948254 259.485840,43.963390 269.680328,41.956638 
	C283.136414,39.307861 298.992798,49.953102 300.980286,63.557869 
	C301.901489,69.863647 297.571960,77.055748 290.492859,81.126038 
	C288.958374,82.008324 287.558136,83.124046 286.374878,83.939995 
	C294.340485,93.563637 302.099030,103.094193 310.073608,112.440407 
	C311.687958,114.332413 314.187225,115.445503 316.145996,117.076881 
	C317.233948,117.983025 318.047974,119.218140 318.985443,120.304985 
	C317.665619,121.197289 316.427704,122.692513 315.012756,122.884789 
	C305.284546,124.206749 297.799316,120.647102 292.074951,112.536140 
	C287.033661,105.393051 281.513062,98.567879 275.875000,91.879753 
	C274.347595,90.067856 271.745117,88.961548 269.431580,88.051003 
	C262.713989,85.407173 260.997589,86.672653 260.992645,93.874229 
	C260.989807,98.036102 260.998474,102.197998 261.003906,106.359879 
	C261.012329,112.811844 262.360474,114.480362 268.805542,116.020798 
	C272.264221,116.847443 272.676605,117.298546 272.904968,120.998688 
	C270.103271,120.998688 267.325928,120.998688 264.072815,120.998749 
M260.994110,73.431099 
	C260.994110,75.883202 260.994110,78.335312 260.994110,81.016205 
	C266.041962,80.629463 270.639801,80.582321 275.127655,79.855804 
	C280.684631,78.956215 286.140808,71.990730 285.390747,66.969971 
	C283.703766,55.677601 281.109589,51.859356 269.739563,50.285770 
	C263.762451,49.458553 260.998810,51.823929 260.996887,57.963409 
	C260.995392,62.792614 260.999939,67.621819 260.994110,73.431099 
z"/>
<path fill="#F9FEFD" opacity="1.000000" stroke="none" 
	d="
M402.175690,53.000980 
	C399.333649,50.791115 396.491608,48.581249 392.929718,45.811672 
	C391.572205,49.628563 390.388824,53.238419 388.980469,56.758274 
	C388.505615,57.945072 387.459991,58.903507 386.675201,59.966301 
	C385.782135,59.030067 384.969208,57.996727 383.978394,57.178913 
	C382.205200,55.715286 380.491180,54.009815 378.444336,53.093716 
	C376.217285,52.096943 373.665558,51.631546 371.209625,51.377922 
	C364.857697,50.721951 362.119629,53.026222 362.097839,60.327721 
	C362.055908,74.388237 362.605865,88.450340 362.870453,102.512550 
	C362.881683,103.108147 362.425079,103.697601 362.299713,104.313004 
	C360.919617,111.089920 363.159332,114.181335 369.684448,116.195221 
	C371.501862,116.756142 376.184326,115.396156 374.657501,121.070190 
	C361.244659,120.186073 347.513275,124.092194 334.048553,119.857643 
	C333.955536,119.351234 333.862518,118.844826 333.769501,118.338417 
	C335.739410,117.560928 337.651917,116.549301 339.689911,116.049774 
	C345.837158,114.543045 347.628143,111.268784 347.175110,105.030922 
	C346.621460,97.407166 347.018494,89.714066 347.011688,82.050957 
	C347.004730,74.219704 347.006012,66.388451 347.004669,58.557198 
	C347.003693,52.806202 343.181213,50.127613 337.351196,51.199921 
	C330.458771,52.467636 324.373657,54.826694 320.788086,61.040520 
	C314.204559,59.642212 319.332001,55.273518 318.499359,52.464935 
	C317.664246,49.647957 320.444977,45.759033 321.402771,43.020920 
	C348.328003,43.020920 375.211975,43.020920 402.273956,43.336128 
	C398.466553,44.232807 398.349030,45.938919 400.774963,48.758144 
	C401.789612,49.937290 402.274170,51.572628 402.793732,53.000477 
	C402.587708,53.000401 402.175690,53.000984 402.175690,53.000980 
z"/>
<path fill="#F6FEFE" opacity="1.000000" stroke="none" 
	d="
M182.000000,123.000732 
	C165.412918,123.000687 149.325836,123.000687 132.388092,123.000687 
	C148.109940,95.576485 163.425873,68.860313 178.943268,41.792736 
	C194.441498,68.646500 209.902054,95.434998 225.811218,123.000771 
	C210.697037,123.000771 196.598526,123.000771 182.000000,123.000732 
M192.499939,118.996895 
	C196.660767,118.996895 200.822113,119.037811 204.982269,118.984917 
	C208.820648,118.936119 212.657730,118.786636 217.290619,118.659721 
	C204.149170,95.818039 191.779678,74.318130 178.928604,51.981182 
	C166.053040,74.431114 153.616486,96.115570 140.493500,118.996895 
	C158.126022,118.996895 174.812988,118.996895 192.499939,118.996895 
z"/>
<path fill="#FDFEFE" opacity="1.000000" stroke="none" 
	d="
M626.956909,50.046272 
	C626.112549,48.742149 625.283447,47.409348 623.774231,44.983292 
	C627.919189,45.288723 631.343384,45.750675 634.765137,45.733521 
	C638.108459,45.716759 641.449280,45.211044 644.896118,44.542953 
	C646.069946,44.115177 647.138733,44.064419 648.673889,44.418568 
	C650.427429,44.604523 651.714600,44.385567 653.001831,44.166611 
	C657.055237,43.782619 661.108582,43.398628 665.774048,43.304909 
	C666.924072,43.730839 667.462036,43.866505 667.947998,44.343391 
	C666.582275,45.279095 665.280518,45.901791 663.951660,46.460041 
	C662.648743,47.007320 661.318359,47.489040 659.585571,48.000790 
	C656.112976,48.942764 653.054749,49.883484 649.996521,50.824196 
	C648.916687,51.215618 647.836792,51.607044 646.168579,51.758644 
	C644.100037,52.208977 641.336121,52.926147 641.349976,53.584881 
	C641.433533,57.558422 642.191223,61.514252 642.642883,65.485153 
	C642.847839,67.286766 643.606567,69.535622 642.847534,70.850632 
	C639.017883,77.485924 642.888794,79.753906 648.286926,81.443634 
	C648.463318,81.498848 648.494812,82.017220 648.982666,83.507614 
	C646.095703,83.295799 643.661804,83.117233 640.938171,82.917404 
	C641.936340,88.135612 642.878662,93.061981 643.820923,97.988342 
	C643.872986,99.060150 643.924988,100.131958 643.540283,101.693962 
	C641.507935,104.650833 640.845398,107.019035 643.823242,109.003021 
	C643.884033,109.437767 643.944763,109.872513 643.679565,110.652130 
	C641.026062,111.320602 640.141846,112.324814 642.404785,113.912399 
	C645.410217,116.020828 643.736938,118.036476 641.892456,118.811386 
	C639.623413,119.764641 636.335144,120.548035 634.453308,119.561813 
	C632.378845,118.474670 629.157104,116.721718 630.086182,112.879868 
	C630.288086,112.044876 629.509705,110.972809 629.182800,110.009933 
	C629.128967,109.557365 629.075134,109.104797 629.292053,108.184578 
	C629.789429,107.487602 629.922363,107.212921 629.961548,106.892883 
	C629.648254,94.935822 629.264160,82.979881 629.075684,71.020851 
	C629.033020,68.319267 629.670837,65.606964 630.231201,62.282936 
	C633.591797,57.028057 632.902283,54.160862 627.914490,51.052563 
	C627.914490,51.052563 627.990295,51.018509 627.872620,50.816826 
	C627.474731,50.425865 627.194519,50.236591 626.914307,50.047318 
	C626.914307,50.047318 626.972229,50.017590 626.956909,50.046272 
z"/>
<path fill="#FEFEFD" opacity="1.000000" stroke="none" 
	d="
M402.999756,53.000549 
	C402.274170,51.572628 401.789612,49.937290 400.774963,48.758144 
	C398.349030,45.938919 398.466553,44.232807 402.713989,43.414322 
	C403.733612,43.124577 404.491211,43.071850 405.703827,43.454521 
	C409.020935,44.458054 411.862366,45.286015 414.751404,45.515621 
	C417.255768,45.714653 419.814056,45.235508 421.360382,45.126049 
	C420.440247,47.894230 419.740112,50.000580 419.039978,52.106934 
	C419.040680,52.465515 418.888000,52.738232 417.950867,52.977280 
	C416.220093,54.109657 414.004486,55.640160 414.225311,56.187397 
	C414.950623,57.984631 416.560211,59.424999 417.830017,61.002495 
	C417.916534,62.131664 418.003052,63.260838 417.701721,65.026794 
	C417.207062,70.775467 417.100250,75.887360 416.598389,81.092285 
	C416.009003,87.608856 415.803894,94.032181 415.678497,100.457069 
	C415.675110,100.629700 416.534424,100.819168 416.986053,101.395645 
	C416.653778,103.860336 416.326874,105.930168 415.666260,108.146042 
	C414.243622,109.261238 413.154724,110.230400 412.065857,111.199570 
	C413.710571,112.466385 415.355286,113.733192 417.174927,115.258835 
	C417.232300,117.288696 417.114777,119.059723 416.997253,120.830734 
	C416.563904,120.888550 416.130585,120.946365 415.119720,120.757965 
	C410.185730,120.386330 407.736694,118.662956 407.648285,113.792358 
	C407.607544,111.547310 407.220337,108.178764 403.173553,108.998703 
	C403.119293,106.625275 403.065002,104.251839 403.443115,101.485657 
	C406.345612,102.244225 406.987732,101.235428 407.049835,98.773384 
	C407.274689,89.854996 407.590729,80.936806 408.052490,72.027893 
	C408.176086,69.643082 408.756500,67.235626 409.454926,64.938187 
	C410.420258,61.762680 406.102814,54.367565 402.906250,54.057835 
	C402.906250,54.057835 402.973328,54.001202 402.983337,53.771839 
	C402.995453,53.361835 402.997589,53.181194 402.999756,53.000549 
M408.483215,110.585213 
	C408.483215,110.585213 408.419434,110.477242 408.483215,110.585213 
z"/>
<path fill="#F9FDFD" opacity="1.000000" stroke="none" 
	d="
M629.030029,110.340927 
	C629.509705,110.972809 630.288086,112.044876 630.086182,112.879868 
	C629.157104,116.721718 632.378845,118.474670 634.453308,119.561813 
	C636.335144,120.548035 639.623413,119.764641 641.892456,118.811386 
	C643.736938,118.036476 645.410217,116.020828 642.404785,113.912399 
	C640.141846,112.324814 641.026062,111.320602 643.733521,110.978897 
	C649.935791,117.038071 657.029297,114.832832 663.722412,113.596596 
	C670.368408,112.369057 675.996399,108.970940 680.233215,103.475281 
	C680.823303,102.709877 682.484680,101.885857 683.056274,102.193230 
	C683.965881,102.682373 684.796326,104.048454 684.930847,105.134041 
	C686.054504,114.198547 679.099121,122.078529 670.025269,121.977310 
	C654.588867,121.805122 639.153381,121.532280 623.719116,121.221161 
	C621.450195,121.175430 618.046936,122.986351 617.521851,119.395309 
	C617.369385,118.352417 621.226196,116.800598 623.149841,115.355247 
	C625.119812,113.875107 626.973022,112.239494 629.030029,110.340927 
z"/>
<path fill="#F9FDFD" opacity="1.000000" stroke="none" 
	d="
M643.899414,97.533585 
	C642.878662,93.061981 641.936340,88.135612 640.938171,82.917404 
	C643.661804,83.117233 646.095703,83.295799 648.982666,83.507614 
	C648.494812,82.017220 648.463318,81.498848 648.286926,81.443634 
	C642.888794,79.753906 639.017883,77.485924 642.847534,70.850632 
	C643.606567,69.535622 642.847839,67.286766 642.642883,65.485153 
	C642.191223,61.514252 641.433533,57.558422 641.349976,53.584881 
	C641.336121,52.926147 644.100037,52.208977 645.811768,51.805893 
	C645.357971,53.996662 644.176819,55.876007 644.081909,57.808685 
	C643.813599,63.273121 644.189941,68.769279 643.919495,74.233490 
	C643.748108,77.696609 645.303467,79.361267 648.359680,78.915039 
	C655.589722,77.859428 663.288330,78.762482 669.756104,74.094398 
	C670.568542,73.508057 672.014282,73.799294 673.166626,73.683914 
	C673.107666,74.817200 673.344788,76.071213 672.940125,77.063469 
	C670.857361,82.170738 668.609680,87.210785 667.053711,90.808090 
	C660.239868,88.624107 654.628540,86.578255 648.876709,85.067154 
	C644.908325,84.024582 643.542114,86.276817 643.943542,90.111954 
	C644.184082,92.410271 643.981384,94.754967 643.899414,97.533585 
z"/>
<path fill="#FDFEFE" opacity="1.000000" stroke="none" 
	d="
M402.956848,54.301273 
	C406.102814,54.367565 410.420258,61.762680 409.454926,64.938187 
	C408.756500,67.235626 408.176086,69.643082 408.052490,72.027893 
	C407.590729,80.936806 407.274689,89.854996 407.049835,98.773384 
	C406.987732,101.235428 406.345612,102.244225 403.520020,101.046707 
	C403.117371,100.829185 403.070190,100.657875 403.356415,99.909386 
	C403.793610,90.615059 403.976807,81.897758 403.958221,73.180878 
	C403.951721,70.123978 403.449554,67.068130 403.173737,64.011795 
	C403.121368,61.589920 403.069000,59.168049 403.236877,56.271103 
	C403.362915,55.535049 403.268738,55.274063 403.174530,55.013077 
	C403.174530,55.013077 403.007446,54.544712 402.956848,54.301273 
z"/>
<path fill="#FDFEFE" opacity="1.000000" stroke="none" 
	d="
M403.098145,109.378899 
	C407.220337,108.178764 407.607544,111.547310 407.648285,113.792358 
	C407.736694,118.662956 410.185730,120.386330 414.794128,120.809586 
	C414.534546,121.402649 414.011902,121.971931 413.513245,121.951607 
	C407.060638,121.688484 400.611450,121.341492 394.161377,121.015671 
	C393.903473,120.495193 393.645569,119.974724 393.387634,119.454247 
	C394.652527,118.424599 395.777039,116.832748 397.209656,116.475090 
	C400.895721,115.554848 402.632080,113.336960 403.098145,109.378899 
z"/>
<path fill="#FDFDFE" opacity="1.000000" stroke="none" 
	d="
M660.000000,47.999542 
	C661.318359,47.489040 662.648743,47.007320 663.951660,46.460041 
	C665.280518,45.901791 666.582275,45.279095 667.949524,44.135223 
	C668.003113,43.585831 668.006348,43.169540 668.006348,43.169540 
	C669.073181,43.118435 670.140015,43.067329 671.662842,43.412170 
	C673.413452,44.871071 674.707947,45.934025 675.963257,47.350998 
	C674.616028,49.470062 673.307983,51.235107 671.919556,52.625061 
	C669.229187,52.111843 666.619202,51.973721 664.009277,51.835594 
	C663.222961,51.552361 662.436584,51.269123 661.295959,50.605583 
	C660.627747,49.483364 660.313904,48.741455 660.000000,47.999542 
z"/>
<path fill="#FFFFFF" opacity="1.000000" stroke="none" 
	d="
M125.116394,161.428711 
	C153.986816,161.031723 183.066910,161.024353 212.621521,161.027893 
	C212.425140,161.358185 211.754150,161.957062 211.083405,161.956757 
	C182.497620,161.943985 153.911850,161.877869 125.116394,161.428711 
z"/>
<path fill="#F9FEFD" opacity="1.000000" stroke="none" 
	d="
M419.370880,51.969521 
	C419.740112,50.000580 420.440247,47.894230 421.360382,45.126049 
	C419.814056,45.235508 417.255768,45.714653 414.751404,45.515621 
	C411.862366,45.286015 409.020935,44.458054 406.077484,43.531731 
	C411.795807,43.117405 417.599945,42.925175 423.391541,43.115017 
	C424.613068,43.155056 425.788727,44.595516 426.985504,45.390709 
	C426.161926,46.574799 425.531494,47.987499 424.467163,48.886570 
	C423.056122,50.078472 421.306122,50.869064 419.370880,51.969521 
z"/>
<path fill="#F0FDFE" opacity="1.000000" stroke="none" 
	d="
M664.370972,51.915318 
	C666.619202,51.973721 669.229187,52.111843 671.956299,52.969398 
	C672.983337,57.190975 675.332031,54.961494 677.122375,54.956245 
	C676.038574,56.816132 674.954773,58.676025 673.870972,60.535938 
	C672.857483,59.183586 672.023682,57.630276 670.788513,56.525772 
	C668.916443,54.851658 666.765320,53.489632 664.370972,51.915318 
z"/>
<path fill="#F9FEFD" opacity="1.000000" stroke="none" 
	d="
M417.429504,120.908730 
	C417.114777,119.059723 417.232300,117.288696 417.143005,114.919395 
	C417.327362,113.200233 417.718567,112.079353 418.109741,110.958466 
	C419.996399,112.725281 421.883057,114.492111 423.893677,116.968307 
	C424.010590,118.730095 424.003540,119.782501 423.996521,120.834915 
	C421.951599,120.885513 419.906677,120.936119 417.429504,120.908730 
z"/>
<path fill="#F9FEFD" opacity="1.000000" stroke="none" 
	d="
M416.993469,80.999252 
	C417.100250,75.887360 417.207062,70.775467 417.571655,65.343124 
	C417.880768,79.040581 417.932098,93.058479 417.600830,107.538818 
	C416.812164,108.000832 416.406097,108.000412 416.000000,108.000000 
	C416.326874,105.930168 416.653778,103.860336 416.988800,100.927185 
	C416.995789,93.709000 416.994629,87.354126 416.993469,80.999252 
z"/>
<path fill="#F9FEFD" opacity="1.000000" stroke="none" 
	d="
M403.098236,64.474304 
	C403.449554,67.068130 403.951721,70.123978 403.958221,73.180878 
	C403.976807,81.897758 403.793610,90.615059 403.432343,99.653900 
	C403.124146,88.295998 403.073425,76.616402 403.098236,64.474304 
z"/>
<path fill="#FFFFFF" opacity="1.000000" stroke="none" 
	d="
M80.116890,161.428253 
	C90.986885,161.031296 102.066017,161.024277 113.619469,161.028229 
	C113.426620,161.358444 112.759445,161.955368 112.092300,161.955338 
	C101.503548,161.954788 90.914787,161.877731 80.116890,161.428253 
z"/>
<path fill="#F9FDFD" opacity="1.000000" stroke="none" 
	d="
M627.956848,51.469170 
	C632.902283,54.160862 633.591797,57.028057 630.181580,61.855148 
	C629.263916,58.657944 628.631592,55.271862 627.956848,51.469170 
z"/>
<path fill="#F9FDFD" opacity="1.000000" stroke="none" 
	d="
M677.075317,54.748016 
	C675.332031,54.961494 672.983337,57.190975 672.036743,53.344486 
	C673.307983,51.235107 674.616028,49.470062 676.350464,47.351269 
	C677.551025,46.977680 678.325256,46.957836 679.099426,46.937996 
	C679.099426,46.938000 679.026978,46.995300 679.021362,47.254021 
	C679.025330,47.713814 679.034973,47.914886 679.044556,48.115959 
	C679.044556,48.115959 678.986267,48.567348 678.547241,48.872719 
	C677.752930,50.823082 677.397766,52.468075 677.042603,54.113060 
	C677.042542,54.113056 677.028320,54.539776 677.075317,54.748016 
z"/>
<path fill="#FDFEFE" opacity="1.000000" stroke="none" 
	d="
M415.666260,108.146034 
	C416.406097,108.000412 416.812164,108.000832 417.522827,108.001854 
	C417.886414,108.741951 417.945465,109.481438 418.057129,110.589706 
	C417.718567,112.079353 417.327362,113.200233 416.968079,114.660553 
	C415.355286,113.733192 413.710571,112.466385 412.065857,111.199570 
	C413.154724,110.230400 414.243622,109.261238 415.666260,108.146034 
z"/>
<path fill="#F9FEFD" opacity="1.000000" stroke="none" 
	d="
M417.907562,60.565651 
	C416.560211,59.424999 414.950623,57.984631 414.225311,56.187397 
	C414.004486,55.640160 416.220093,54.109657 417.714233,53.034729 
	C418.067444,55.402916 418.026276,57.765858 417.907562,60.565651 
z"/>
<path fill="#F0FBFD" opacity="1.000000" stroke="none" 
	d="
M424.421417,120.912125 
	C424.003540,119.782501 424.010590,118.730095 424.028931,117.283112 
	C425.104370,116.931175 426.168488,116.973808 427.625488,117.091934 
	C430.166992,118.565689 432.315704,119.963936 434.722046,121.598778 
	C431.601898,121.553360 428.224121,121.271355 424.421417,120.912125 
z"/>
<path fill="#F9FDFD" opacity="1.000000" stroke="none" 
	d="
M659.585571,48.000793 
	C660.313904,48.741455 660.627747,49.483364 660.971802,50.527306 
	C657.635620,50.877563 654.269409,50.925793 650.449829,50.899109 
	C653.054749,49.883484 656.112976,48.942764 659.585571,48.000793 
z"/>
<path fill="#FFFFFF" opacity="1.000000" stroke="none" 
	d="
M53.113014,161.427963 
	C61.315784,161.031540 69.729721,161.024216 78.617882,161.027527 
	C76.279480,161.358780 73.470650,161.905518 70.653450,161.952682 
	C64.879402,162.049347 59.100872,161.878052 53.113014,161.427963 
z"/>
<path fill="#F0FCFF" opacity="1.000000" stroke="none" 
	d="
M28.524708,115.985199 
	C28.467848,116.944191 28.226599,118.097122 27.555983,118.884232 
	C26.532970,120.084946 25.213072,121.032700 24.012531,122.460106 
	C23.004194,122.081947 22.002563,121.331551 21.000931,120.581154 
	C21.801575,119.722122 22.465977,118.634140 23.434746,118.057625 
	C24.894146,117.189156 26.566301,116.678223 28.524708,115.985199 
z"/>
<path fill="#F0FDFE" opacity="1.000000" stroke="none" 
	d="
M679.052795,46.533028 
	C678.325256,46.957836 677.551025,46.977680 676.389648,46.997253 
	C674.707947,45.934025 673.413452,44.871071 672.057617,43.487511 
	C674.541687,43.659958 678.468384,40.882771 679.052795,46.533028 
z"/>
<path fill="#F9FDFD" opacity="1.000000" stroke="none" 
	d="
M643.901123,108.570267 
	C640.845398,107.019035 641.507935,104.650833 643.462524,102.090248 
	C643.873901,104.043396 643.926453,106.090454 643.901123,108.570267 
z"/>
<path fill="#F0FCFF" opacity="1.000000" stroke="none" 
	d="
M45.391640,122.902390 
	C44.993301,121.531273 44.995346,120.236023 44.996948,118.552216 
	C45.993988,119.058578 46.991470,119.953514 47.988953,120.848450 
	C47.256645,121.558395 46.524334,122.268333 45.391640,122.902390 
z"/>
<path fill="#F9FDFD" opacity="1.000000" stroke="none" 
	d="
M652.606140,44.088608 
	C651.714600,44.385567 650.427429,44.604523 649.069214,44.494877 
	C650.069031,44.114384 651.139709,44.062492 652.606140,44.088608 
z"/>
<path fill="#F0FDFE" opacity="1.000000" stroke="none" 
	d="
M677.378418,53.959747 
	C677.397766,52.468075 677.752930,50.823082 678.467896,49.086033 
	C678.456604,50.598122 678.085449,52.202274 677.378418,53.959747 
z"/>
<path fill="#F0FCFF" opacity="1.000000" stroke="none" 
	d="
M26.319309,122.960770 
	C27.180853,122.672630 28.354475,122.522316 29.754641,122.597191 
	C28.864584,122.914452 27.747986,123.006523 26.319309,122.960770 
z"/>
<path fill="#F0FCFF" opacity="1.000000" stroke="none" 
	d="
M32.373894,122.905716 
	C32.865715,122.682411 33.725170,122.535378 34.781700,122.603035 
	C34.233025,122.872482 33.487270,122.927231 32.373894,122.905716 
z"/>
<path fill="#F0FCFF" opacity="1.000000" stroke="none" 
	d="
M43.973396,117.635956 
	C43.704632,117.798851 43.366283,117.708702 43.010994,117.393738 
	C43.297310,117.240250 43.600559,117.311577 43.973396,117.635956 
z"/>
<path fill="#F0FCFF" opacity="1.000000" stroke="none" 
	d="
M38.332237,122.901276 
	C38.561287,122.694717 39.116692,122.564674 39.826633,122.629898 
	C39.540310,122.876045 39.099449,122.926918 38.332237,122.901276 
z"/>
<path fill="#F0FCFF" opacity="1.000000" stroke="none" 
	d="
M42.333851,122.895264 
	C42.562943,122.690002 43.117489,122.561195 43.825806,122.627396 
	C43.539490,122.872169 43.099400,122.921944 42.333851,122.895264 
z"/>
<path fill="#F0FDFE" opacity="1.000000" stroke="none" 
	d="
M667.677979,43.091324 
	C668.006348,43.169540 668.003113,43.585831 668.001587,43.793999 
	C667.462036,43.866505 666.924072,43.730839 666.201782,43.381924 
	C666.461487,43.116817 666.905579,43.064960 667.677979,43.091324 
z"/>
<path fill="#F9FDFD" opacity="1.000000" stroke="none" 
	d="
M626.991699,50.301941 
	C627.194519,50.236591 627.474731,50.425865 627.854126,50.854027 
	C627.658569,50.914131 627.363831,50.735352 626.991699,50.301941 
z"/>
<path fill="#F9FDFD" opacity="1.000000" stroke="none" 
	d="
M629.707153,106.978622 
	C629.922363,107.212921 629.789429,107.487602 629.372437,107.849846 
	C629.272217,107.676636 629.362427,107.370499 629.707153,106.978622 
z"/>
<path fill="#F0FDFE" opacity="1.000000" stroke="none" 
	d="
M679.312744,48.028122 
	C679.034973,47.914886 679.025330,47.713814 679.037720,47.210861 
	C679.233459,47.252747 679.407166,47.596516 679.312744,48.028122 
z"/>
<path fill="#FDFEFE" opacity="1.000000" stroke="none" 
	d="
M402.793732,53.000473 
	C402.997589,53.181194 402.995453,53.361835 402.969360,53.813438 
	C402.650238,53.900032 402.355042,53.715664 402.117798,53.266140 
	C402.175690,53.000984 402.587708,53.000401 402.793732,53.000473 
z"/>
<path fill="#FEFEFD" opacity="1.000000" stroke="none" 
	d="
M403.104401,55.254372 
	C403.268738,55.274063 403.362915,55.535049 403.315308,55.887291 
	C403.127075,55.817581 403.080658,55.656624 403.104401,55.254372 
z"/>
<path fill="#000000" opacity="1.000000" stroke="none" 
	d="
M260.997955,72.941055 
	C260.999939,67.621819 260.995392,62.792614 260.996887,57.963409 
	C260.998810,51.823929 263.762451,49.458553 269.739563,50.285770 
	C281.109589,51.859356 283.703766,55.677601 285.390747,66.969971 
	C286.140808,71.990730 280.684631,78.956215 275.127655,79.855804 
	C270.639801,80.582321 266.041962,80.629463 260.994110,81.016205 
	C260.994110,78.335312 260.994110,75.883202 260.997955,72.941055 
z"/>
<path fill="#000000" opacity="1.000000" stroke="none" 
	d="
M191.999954,118.996895 
	C174.812988,118.996895 158.126022,118.996895 140.493500,118.996895 
	C153.616486,96.115570 166.053040,74.431114 178.928604,51.981182 
	C191.779678,74.318130 204.149170,95.818039 217.290619,118.659721 
	C212.657730,118.786636 208.820648,118.936119 204.982269,118.984917 
	C200.822113,119.037811 196.660767,118.996895 191.999954,118.996895 
M183.027817,68.322861 
	C182.053452,66.234398 181.079102,64.145927 179.654404,61.092167 
	C178.061127,63.526016 176.773865,65.492416 175.462479,67.495674 
	C175.208405,67.213005 174.782852,66.739555 174.573776,66.506950 
	C166.122986,81.853157 157.665070,97.212280 149.086395,112.790710 
	C168.762726,112.790710 188.273529,112.790710 208.418884,112.790710 
	C204.973175,106.253014 201.921906,100.026192 198.474121,94.027252 
	C193.623154,85.586922 188.478027,77.315643 183.027817,68.322861 
z"/>
<path fill="#FDFEFE" opacity="1.000000" stroke="none" 
	d="
M416.598389,81.092285 
	C416.994629,87.354126 416.995789,93.709000 416.994202,100.532333 
	C416.534424,100.819168 415.675110,100.629700 415.678497,100.457069 
	C415.803894,94.032181 416.009003,87.608856 416.598389,81.092285 
z"/>
<path fill="#FDFEFE" opacity="1.000000" stroke="none" 
	d="
M408.451324,110.531227 
	C408.419434,110.477242 408.483215,110.585213 408.451324,110.531227 
z"/>
<path fill="#F9FEFE" opacity="1.000000" stroke="none" 
	d="
M183.243256,68.647461 
	C188.478027,77.315643 193.623154,85.586922 198.474121,94.027252 
	C201.921906,100.026192 204.973175,106.253014 208.418884,112.790710 
	C188.273529,112.790710 168.762726,112.790710 149.086395,112.790710 
	C157.665070,97.212280 166.122986,81.853157 174.573776,66.506950 
	C174.782852,66.739555 175.208405,67.213005 175.462479,67.495674 
	C176.773865,65.492416 178.061127,63.526016 179.654404,61.092167 
	C181.079102,64.145927 182.053452,66.234398 183.243256,68.647461 
M172.806915,106.008476 
	C174.010452,106.555946 175.048233,109.851761 176.556824,106.210838 
	C176.672913,105.930649 178.064606,105.755989 178.390182,106.052269 
	C181.084213,108.503868 182.820236,105.883400 185.611282,104.980270 
	C186.351196,104.987091 187.091125,104.993912 188.192459,105.701385 
	C191.678391,106.947296 194.356506,111.213272 199.331375,108.116402 
	C198.826096,106.917633 198.452957,105.342690 197.581360,104.124352 
	C196.236603,102.244621 194.143982,100.825645 193.081604,98.831398 
	C189.073868,91.308281 185.391586,83.612587 181.509354,76.021446 
	C179.750839,72.582924 177.887924,72.529922 175.984116,76.030869 
	C170.175446,86.712463 164.312744,97.364677 157.925003,109.025139 
	C162.102737,108.651398 165.499832,108.347496 169.420578,107.846664 
	C170.296097,107.207291 171.171616,106.567909 172.806915,106.008476 
z"/>
<path fill="#000000" opacity="1.000000" stroke="none" 
	d="
M168.896927,108.043602 
	C165.499832,108.347496 162.102737,108.651398 157.925003,109.025139 
	C164.312744,97.364677 170.175446,86.712463 175.984116,76.030869 
	C177.887924,72.529922 179.750839,72.582924 181.509354,76.021446 
	C185.391586,83.612587 189.073868,91.308281 193.081604,98.831398 
	C194.143982,100.825645 196.236603,102.244621 197.581360,104.124352 
	C198.452957,105.342690 198.826096,106.917633 199.331375,108.116402 
	C194.356506,111.213272 191.678391,106.947296 188.185150,105.000275 
	C189.430466,104.088417 190.683075,103.877670 192.334000,103.599922 
	C187.902481,96.023972 183.665726,88.780960 179.428970,81.537949 
	C178.931747,81.687691 178.434509,81.837440 177.937271,81.987183 
	C174.878906,91.135460 165.481567,97.086113 165.195801,107.872841 
	C166.609772,107.938080 167.753342,107.990845 168.896927,108.043602 
z"/>
<path fill="#F6FEFE" opacity="1.000000" stroke="none" 
	d="
M169.158752,107.945137 
	C167.753342,107.990845 166.609772,107.938080 165.195801,107.872841 
	C165.481567,97.086113 174.878906,91.135460 177.937271,81.987183 
	C178.434509,81.837440 178.931747,81.687691 179.428970,81.537949 
	C183.665726,88.780960 187.902481,96.023972 192.334000,103.599922 
	C190.683075,103.877670 189.430466,104.088417 188.004440,104.649948 
	C187.091125,104.993912 186.351196,104.987091 185.191864,104.623962 
	C180.995514,104.201286 177.217102,104.068237 173.443481,104.151901 
	C172.965149,104.162514 172.511963,105.308540 172.047134,105.928528 
	C171.171616,106.567909 170.296097,107.207291 169.158752,107.945137 
M178.620300,92.039597 
	C177.318649,94.125816 176.016998,96.212036 174.408386,98.790253 
	C177.730652,98.790253 180.251724,98.790253 183.490738,98.790253 
	C181.952774,96.257446 180.676147,94.155022 178.620300,92.039597 
z"/>
<path fill="#000000" opacity="1.000000" stroke="none" 
	d="
M172.427032,105.968506 
	C172.511963,105.308540 172.965149,104.162514 173.443481,104.151901 
	C177.217102,104.068237 180.995514,104.201286 184.822113,104.611298 
	C182.820236,105.883400 181.084213,108.503868 178.390182,106.052269 
	C178.064606,105.755989 176.672913,105.930649 176.556824,106.210838 
	C175.048233,109.851761 174.010452,106.555946 172.427032,105.968506 
z"/>
<path fill="#000000" opacity="1.000000" stroke="none" 
	d="
M179.009903,92.046097 
	C180.676147,94.155022 181.952774,96.257446 183.490738,98.790253 
	C180.251724,98.790253 177.730652,98.790253 174.408386,98.790253 
	C176.016998,96.212036 177.318649,94.125816 179.009903,92.046097 
z"/>
</svg>